<svg width="19" height="19" viewBox="0 0 19 19" fill="none" xmlns="http://www.w3.org/2000/svg">
<path d="M13.6749 0H5.98102C2.63921 0 0.646973 1.99126 0.646973 5.33144V13.0114C0.646973 16.3617 2.63921 18.3529 5.98102 18.3529H13.6658C17.0076 18.3529 18.9999 16.3617 18.9999 13.0215V5.33144C19.0089 1.99126 17.0167 0 13.6749 0ZM9.82794 12.7364C7.86389 12.7364 6.26627 11.1396 6.26627 9.17647C6.26627 7.21226 7.86389 5.61542 9.82794 5.61542C11.7931 5.61542 13.3907 7.21226 13.3907 9.17647C13.3907 11.1396 11.7931 12.7364 9.82794 12.7364ZM15.2635 4.47836C15.2172 4.58767 15.153 4.68909 15.0707 4.78037C14.9782 4.86377 14.8779 4.928 14.7674 4.97308C14.6569 5.01928 14.5374 5.04633 14.419 5.04633C14.1709 5.04633 13.9409 4.95505 13.7662 4.78037C13.6839 4.68909 13.6196 4.58767 13.5734 4.47836C13.5283 4.36792 13.5001 4.24847 13.5001 4.12902C13.5001 4.00956 13.5283 3.89011 13.5734 3.7808C13.6196 3.66135 13.6839 3.56894 13.7662 3.47766C13.9781 3.26693 14.2995 3.16551 14.5926 3.22974C14.6569 3.23875 14.7121 3.25791 14.7674 3.28496C14.8226 3.30299 14.8779 3.33116 14.932 3.36722C14.9782 3.3954 15.0244 3.44047 15.0707 3.47766C15.153 3.56894 15.2172 3.66135 15.2635 3.7808C15.3086 3.89011 15.3367 4.00956 15.3367 4.12902C15.3367 4.24847 15.3086 4.36792 15.2635 4.47836Z" fill="#EBE6E1"/>
</svg>
