<svg width="18" height="18" viewBox="0 0 18 18" fill="none" xmlns="http://www.w3.org/2000/svg">
<path d="M2.03922 17.353C1.47843 17.353 0.998366 17.1533 0.59902 16.754C0.199673 16.3546 0 15.8746 0 15.3138C0 14.753 0.199673 14.2729 0.59902 13.8736C0.998366 13.4742 1.47843 13.2746 2.03922 13.2746C2.6 13.2746 3.08007 13.4742 3.47941 13.8736C3.87876 14.2729 4.07843 14.753 4.07843 15.3138C4.07843 15.8746 3.87876 16.3546 3.47941 16.754C3.08007 17.1533 2.6 17.353 2.03922 17.353ZM14.2745 17.353C14.2745 15.3648 13.9007 13.5082 13.1529 11.7834C12.4052 10.0585 11.3856 8.55037 10.0941 7.25887C8.80262 5.96737 7.29444 4.94776 5.56961 4.20005C3.84477 3.45233 1.98824 3.07848 0 3.07848V0.0196533C2.41307 0.0196533 4.66471 0.46998 6.7549 1.37063C8.8451 2.27129 10.6804 3.51181 12.2608 5.0922C13.8412 6.67259 15.0817 8.50789 15.9824 10.5981C16.883 12.6883 17.3333 14.9399 17.3333 17.353H14.2745ZM8.15686 17.353C8.15686 16.2144 7.94444 15.1566 7.51961 14.1795C7.09477 13.2023 6.5085 12.3399 5.76078 11.5922C5.01307 10.8445 4.15065 10.2582 3.17353 9.83338C2.19641 9.40854 1.13856 9.19612 0 9.19612V6.1373C1.5634 6.1373 3.02059 6.43044 4.37157 7.01671C5.72255 7.60299 6.90784 8.40593 7.92745 9.42554C8.94706 10.4451 9.75 11.6304 10.3363 12.9814C10.9225 14.3324 11.2157 15.7896 11.2157 17.353H8.15686Z" fill="#EBE6E1"/>
</svg>
