<svg width="22" height="22" viewBox="0 0 22 22" fill="none" xmlns="http://www.w3.org/2000/svg">
<path d="M8.77232 14.143L6.88167 16.043C5.94184 16.9801 4.6679 17.5053 3.34046 17.503H2.50017C2.22393 17.503 2 17.2791 2 17.003V16.003C2 15.7268 2.22393 15.503 2.50017 15.503H3.34046C4.13611 15.5023 4.89892 15.1857 5.46118 14.623L7.36184 12.733L8.77232 14.143ZM13.1238 16.043C13.9072 16.8091 14.9182 17.3004 16.0048 17.443V19.503C16.0076 19.703 16.1294 19.8821 16.3145 19.9583C16.4995 20.0344 16.7122 19.993 16.8551 19.853L19.8561 16.853C20.048 16.6551 20.048 16.3408 19.8561 16.143L16.8551 13.143C16.7109 13.0016 16.4958 12.9609 16.3099 13.0396C16.124 13.1183 16.0036 13.3011 16.0048 13.503V15.423C15.4522 15.2994 14.9459 15.022 14.5443 14.623L11.4132 11.503L14.5443 8.38295C14.9459 7.98389 15.4522 7.70654 16.0048 7.58295V9.50295C16.0076 9.70299 16.1294 9.88209 16.3145 9.95827C16.4995 10.0344 16.7122 9.99301 16.8551 9.85295L19.8561 6.85295C20.048 6.65514 20.048 6.34076 19.8561 6.14295L16.8551 3.14295C16.7109 3.00165 16.4958 2.96088 16.3099 3.0396C16.124 3.11833 16.0036 3.3011 16.0048 3.50295V5.56295C14.9182 5.70553 13.9072 6.19681 13.1238 6.96295L10.0027 10.093L6.88167 6.96295C5.94184 6.02581 4.6679 5.50058 3.34046 5.50295H2.50017C2.22393 5.50295 2 5.72681 2 6.00295V7.00295C2 7.27909 2.22393 7.50295 2.50017 7.50295H3.34046C4.13611 7.50365 4.89892 7.82018 5.46118 8.38295L13.1238 16.043Z" fill="#C5C5C5"/>
</svg>
