<?xml version="1.0" encoding="UTF-8" standalone="no"?>
<!DOCTYPE svg PUBLIC "-//W3C//DTD SVG 1.1//EN" "http://www.w3.org/Graphics/SVG/1.1/DTD/svg11.dtd">
<svg width="100%" height="100%" viewBox="0 0 42 18" version="1.1" xmlns="http://www.w3.org/2000/svg" xmlns:xlink="http://www.w3.org/1999/xlink" xml:space="preserve" xmlns:serif="http://www.serif.com/" style="fill-rule:evenodd;clip-rule:evenodd;stroke-linejoin:round;stroke-miterlimit:2;">
    <g transform="matrix(0.870923,0,0,0.870923,1.777,1.16175)">
        <path d="M8.995,12.6C7.998,12.6 7.149,12.249 6.449,11.546C5.749,10.843 5.399,9.993 5.399,8.996C5.399,7.999 5.75,7.15 6.453,6.45C7.156,5.75 8.006,5.4 9.003,5.4C10,5.4 10.849,5.752 11.549,6.454C12.249,7.157 12.599,8.007 12.599,9.004C12.599,10.002 12.248,10.85 11.545,11.55C10.842,12.25 9.992,12.6 8.995,12.6ZM4.152,9.778L0.796,9.778L0.796,8.222L4.152,8.222L4.152,9.778ZM17.202,9.778L13.846,9.778L13.846,8.222L17.202,8.222L17.202,9.778ZM8.221,4.153L8.221,0.797L9.777,0.797L9.777,4.153L8.221,4.153ZM8.221,17.203L8.221,13.847L9.777,13.847L9.777,17.203L8.221,17.203ZM5.038,6.115L2.968,4.097L4.063,2.913L6.128,4.998L5.038,6.115ZM13.935,15.012L11.889,12.984L12.955,11.876L15.03,13.904L13.935,15.012ZM11.855,5.044L13.903,3.007L15.011,4.065L13.002,6.148L11.855,5.044ZM2.912,13.936L5.015,11.927L6.086,12.957L4.114,15.05L2.912,13.936Z" style="fill:rgb(251,251,251);fill-rule:nonzero;"/>
    </g>
    <g transform="matrix(0.920034,0,0,0.928545,21.3687,-2.16237)">
        <g id="dark_mode_24dp_FILL1_wght200_GRAD0_opsz20.svg">
            <g>
                <path d="M12.057,19.4C10.002,19.4 8.255,18.681 6.816,17.242C5.377,15.803 4.658,14.056 4.658,12C4.658,10.141 5.259,8.526 6.462,7.156C7.664,5.785 9.156,4.965 10.936,4.696C10.974,4.696 11.012,4.698 11.049,4.702C11.085,4.706 11.129,4.712 11.179,4.719C10.875,5.19 10.637,5.684 10.466,6.202C10.294,6.72 10.208,7.253 10.208,7.8C10.208,9.495 10.792,10.926 11.962,12.096C13.131,13.265 14.563,13.85 16.258,13.85C16.792,13.85 17.322,13.764 17.846,13.592C18.371,13.42 18.862,13.183 19.319,12.879C19.327,12.929 19.333,12.972 19.337,13.009C19.34,13.046 19.342,13.083 19.342,13.121C19.086,14.902 18.272,16.393 16.901,17.596C15.53,18.799 13.915,19.4 12.057,19.4Z" style="fill:white;fill-rule:nonzero;"/>
            </g>
        </g>
    </g>
</svg>
